<svg width="297" height="602" viewBox="0 0 297 602" fill="none" xmlns="http://www.w3.org/2000/svg">
<path fill-rule="evenodd" clip-rule="evenodd" d="M46.8631 0.00854492H250.136C274.669 0.00854492 294.556 20.0285 294.556 44.7257V556.699C294.556 581.396 274.669 601.416 250.136 601.416H46.8631C22.3302 601.416 2.44336 581.396 2.44336 556.699V44.7257C2.44336 20.0285 22.3302 0.00854492 46.8631 0.00854492ZM219.672 15.1732H250.137C266.342 15.1732 279.493 28.3958 279.493 44.7257V556.699C279.493 573.029 266.342 586.251 250.137 586.251H46.8638C30.6424 586.251 17.5078 573.013 17.5078 556.699V44.7257C17.5078 28.3958 30.6585 15.1732 46.8638 15.1732H77.3451C79.853 15.1732 81.8787 17.2124 81.8787 19.7372C81.8787 29.2212 89.5151 36.9087 98.936 36.9087H198.081C207.502 36.9087 215.138 29.2212 215.138 19.7372C215.138 17.2124 217.164 15.1732 219.672 15.1732Z" fill="black"/>
<path d="M164.189 22.618H132.807C131.489 22.618 130.428 23.6862 130.428 25.0133C130.428 26.3404 131.489 27.4086 132.807 27.4086H164.189C165.507 27.4086 166.568 26.3404 166.568 25.0133C166.568 23.6862 165.507 22.618 164.189 22.618Z" fill="#4E4E50"/>
<path d="M182.58 24.9971C182.58 26.8583 181.085 28.3796 179.22 28.3796C177.372 28.3796 175.86 26.8745 175.86 24.9971C175.86 23.1359 177.355 21.6146 179.22 21.6146C181.069 21.6308 182.58 23.1359 182.58 24.9971Z" fill="#4E4E50"/>
<path opacity="0.5" d="M277.901 14.2183C273.367 10.3826 268.078 7.48566 262.451 5.88342C259.638 5.09039 256.76 4.55631 253.866 4.3621C252.403 4.28118 250.988 4.26499 249.509 4.29736L245.056 4.41065C233.208 4.6696 221.343 4.89618 209.495 5.05802C197.646 5.26842 185.782 5.30078 173.933 5.43026L138.371 5.55973L102.794 5.44644C90.9454 5.31697 79.0808 5.2846 67.2323 5.07421L49.4515 4.79907L47.233 4.75052C46.4934 4.73434 45.8021 4.7667 45.0787 4.78289C43.6479 4.75052 42.217 4.9771 40.7862 5.09039C40.0788 5.17131 39.3715 5.33315 38.6641 5.44644C37.9567 5.57592 37.2494 5.68921 36.5581 5.8996L34.4681 6.44987L32.4264 7.16198C32.0888 7.27527 31.7351 7.38856 31.3975 7.51803L30.4007 7.955C29.7416 8.24632 29.0663 8.52145 28.4233 8.84514C27.1532 9.52488 25.8349 10.1722 24.6292 10.9815C23.3752 11.7259 22.2338 12.6323 21.0602 13.49C20.4814 13.9432 19.9509 14.4449 19.3882 14.9142L18.5522 15.6263L17.7805 16.4032C13.5685 20.514 10.2727 25.5635 8.03809 31.0985C8.97053 28.2663 10.0959 25.4826 11.591 22.8607C13.1183 20.2874 14.8224 17.7627 16.8963 15.5616L17.6519 14.72L18.4558 13.927C19.0024 13.4091 19.5329 12.8588 20.0956 12.3571C21.2692 11.4023 22.3945 10.3988 23.6646 9.55725C24.8703 8.63474 26.2047 7.90645 27.5069 7.11342C28.166 6.74118 28.8573 6.4175 29.5326 6.07763L30.5615 5.57592C30.9152 5.41407 31.2688 5.2846 31.6225 5.13894C32.3299 4.84763 33.0373 4.57249 33.7446 4.29736L35.9311 3.61762C36.6545 3.37486 37.394 3.21301 38.1496 3.05117C38.8892 2.88933 39.6287 2.69512 40.3843 2.58183C41.8955 2.38762 43.4067 2.0963 44.934 2.06393C45.6896 2.03156 46.4774 1.95064 47.2169 1.93446L49.4355 1.8859L67.2162 1.61077C79.0647 1.40038 90.9293 1.36801 102.778 1.23853L138.339 1.12524L173.901 1.25472C185.749 1.36801 197.614 1.41656 209.462 1.62696C221.311 1.77261 233.175 2.01538 245.024 2.27433L249.477 2.38762C250.972 2.41999 252.5 2.51709 253.995 2.67893C257.001 3.03499 259.959 3.73091 262.789 4.73434C265.618 5.75394 268.351 7.04869 270.875 8.65093C273.431 10.2532 275.779 12.1305 277.901 14.2183Z" fill="#4E4E50"/>
<path d="M192.981 578.872H104.029C103.113 578.872 102.373 579.616 102.373 580.538C102.373 581.461 103.113 582.205 104.029 582.205H192.981C193.897 582.205 194.637 581.461 194.637 580.538C194.621 579.616 193.881 578.872 192.981 578.872Z" fill="#4E4E50"/>
<path d="M295.665 200.225C296.405 200.225 297 199.626 297 198.881V125.421C297 124.676 296.405 124.078 295.665 124.078H294.54V200.208H295.665V200.225Z" fill="black"/>
<path d="M1.33436 74.4723C0.594836 74.4723 0 75.0711 0 75.7994V96.3049C0 97.0493 0.594836 97.6482 1.33436 97.6482H2.45973V74.4723H1.33436Z" fill="black"/>
<path d="M1.33436 114.221C0.594836 114.221 0 114.836 0 115.564V151.283C0 152.027 0.594836 152.626 1.33436 152.626H2.45973V114.221H1.33436Z" fill="black"/>
<path d="M1.33436 164.91C0.594836 164.91 0 165.509 0 166.253V201.972C0 202.717 0.594836 203.315 1.33436 203.315H2.45973V164.91H1.33436Z" fill="black"/>
</svg>
