<svg width="250" height="507" viewBox="0 0 250 507" fill="none" xmlns="http://www.w3.org/2000/svg">
<path fill-rule="evenodd" clip-rule="evenodd" d="M39.447 0H210.552C231.203 0 247.942 16.8518 247.942 37.6406V468.594C247.942 489.383 231.203 506.234 210.552 506.234H39.447C18.7964 506.234 2.05664 489.383 2.05664 468.594V37.6406C2.05664 16.8518 18.7964 0 39.447 0ZM184.909 12.7648H210.553C224.193 12.7648 235.263 23.8949 235.263 37.6406V468.594C235.263 482.339 224.193 493.469 210.553 493.469H39.4477C25.7934 493.469 14.7373 482.326 14.7373 468.594V37.6406C14.7373 23.8949 25.8069 12.7648 39.4477 12.7648H65.1053C67.2164 12.7648 68.9215 14.4813 68.9215 16.6065C68.9215 24.5896 75.3494 31.0606 83.2795 31.0606H166.734C174.665 31.0606 181.092 24.5896 181.092 16.6065C181.092 14.4813 182.798 12.7648 184.909 12.7648Z" fill="black"/>
<path d="M138.206 19.0315H111.791C110.681 19.0315 109.788 19.9306 109.788 21.0477C109.788 22.1648 110.681 23.0639 111.791 23.0639H138.206C139.316 23.0639 140.209 22.1648 140.209 21.0477C140.209 19.9306 139.316 19.0315 138.206 19.0315Z" fill="#4E4E50"/>
<path d="M153.688 21.034C153.688 22.6007 152.429 23.8812 150.86 23.8812C149.303 23.8812 148.031 22.6143 148.031 21.034C148.031 19.4673 149.29 18.1868 150.86 18.1868C152.416 18.2004 153.688 19.4673 153.688 21.034Z" fill="#4E4E50"/>
<path opacity="0.5" d="M233.923 11.961C230.107 8.73235 225.655 6.29382 220.919 4.94513C218.55 4.2776 216.128 3.82804 213.692 3.66456C212.461 3.59645 211.27 3.58282 210.025 3.61007L206.276 3.70543C196.303 3.9234 186.316 4.11412 176.342 4.25035C166.369 4.42745 156.382 4.4547 146.409 4.56369L116.475 4.67267L86.5272 4.57731C76.5538 4.46832 66.5668 4.44108 56.5933 4.26398L41.6264 4.03238L39.7589 3.99152C39.1364 3.97789 38.5545 4.00514 37.9455 4.01876C36.7411 3.99152 35.5367 4.18224 34.3323 4.2776C33.7369 4.34572 33.1415 4.48195 32.546 4.57731C31.9506 4.68629 31.3552 4.78166 30.7733 4.95876L29.0141 5.42194L27.2954 6.02136C27.0112 6.11672 26.7135 6.21208 26.4293 6.32106L25.5903 6.68889C25.0355 6.9341 24.4671 7.1657 23.9258 7.43816C22.8568 8.01033 21.7471 8.55525 20.7322 9.23641C19.6766 9.86307 18.7158 10.626 17.7279 11.348C17.2408 11.7294 16.7942 12.1518 16.3206 12.5468L15.6169 13.1462L14.9673 13.8001C11.4218 17.2604 8.64762 21.5108 6.7666 26.1699C7.55149 23.7859 8.49876 21.4427 9.75729 19.2358C11.0429 17.0697 12.4773 14.9445 14.223 13.0917L14.859 12.3833L15.5357 11.7158C15.9958 11.2799 16.4423 10.8167 16.916 10.3944C17.9039 9.59061 18.8511 8.74598 19.9202 8.03758C20.9351 7.26106 22.0583 6.64802 23.1545 5.98049C23.7093 5.66716 24.2912 5.39469 24.8596 5.10861L25.7256 4.68629C26.0234 4.55006 26.3211 4.44108 26.6188 4.31847C27.2142 4.07325 27.8097 3.84166 28.4051 3.61007L30.2455 3.0379C30.8545 2.83355 31.477 2.69732 32.113 2.56109C32.7355 2.42486 33.358 2.26138 33.994 2.16602C35.2661 2.00254 36.5381 1.75733 37.8237 1.73008C38.4597 1.70283 39.1228 1.63472 39.7453 1.6211L41.6128 1.58023L56.5798 1.34863C66.5532 1.17153 76.5402 1.14429 86.5137 1.0353L116.448 0.939941L146.382 1.04893C156.355 1.14429 166.342 1.18516 176.315 1.36226C186.289 1.48487 196.276 1.68921 206.249 1.90718L209.998 2.00254C211.256 2.02979 212.542 2.11153 213.8 2.24776C216.331 2.54747 218.821 3.13326 221.203 3.97789C223.585 4.83615 225.885 5.926 228.01 7.27468C230.161 8.62337 232.137 10.2036 233.923 11.961Z" fill="#4E4E50"/>
<path d="M162.442 487.257H87.5667C86.7953 487.257 86.1729 487.884 86.1729 488.661C86.1729 489.437 86.7953 490.064 87.5667 490.064H162.442C163.213 490.064 163.836 489.437 163.836 488.661C163.822 487.884 163.2 487.257 162.442 487.257Z" fill="#4E4E50"/>
<path d="M248.876 168.531C249.498 168.531 249.999 168.027 249.999 167.401V105.565C249.999 104.939 249.498 104.435 248.876 104.435H247.929V168.518H248.876V168.531Z" fill="black"/>
<path d="M1.1232 62.6798C0.500703 62.6798 0 63.1839 0 63.7969V81.0574C0 81.684 0.500703 82.1881 1.1232 82.1881H2.07047V62.6798H1.1232Z" fill="black"/>
<path d="M1.1232 96.1381C0.500703 96.1381 0 96.6557 0 97.2688V127.335C0 127.962 0.500703 128.466 1.1232 128.466H2.07047V96.1381H1.1232Z" fill="black"/>
<path d="M1.1232 138.806C0.500703 138.806 0 139.31 0 139.936V170.003C0 170.629 0.500703 171.133 1.1232 171.133H2.07047V138.806H1.1232V138.806Z" fill="black"/>
</svg>
